<svg width="16.000000" height="16.000000" viewBox="0 0 16 16" fill="none" xmlns="http://www.w3.org/2000/svg" xmlns:xlink="http://www.w3.org/1999/xlink">
	<desc>
			Created with Pixso.
	</desc>
	<defs/>
	<path id="Vector" d="M16 4.66L16 5.33L0 5.33L0 4.66C0 2.82 1.49 1.33 3.33 1.33L4 1.33L4 0.66C4 0.29 4.29 0 4.66 0C5.03 0 5.33 0.29 5.33 0.66L5.33 1.33L10.66 1.33L10.66 0.66C10.66 0.29 10.96 0 11.33 0C11.7 0 12 0.29 12 0.66L12 1.33L12.66 1.33C14.5 1.33 16 2.82 16 4.66ZM16 11.33C16 13.9 13.9 16 11.33 16C8.76 16 6.66 13.9 6.66 11.33C6.66 8.76 8.76 6.66 11.33 6.66C13.9 6.66 16 8.76 16 11.33ZM12.66 11.72L12 11.05L12 10C12 9.63 11.7 9.33 11.33 9.33C10.96 9.33 10.66 9.63 10.66 10L10.66 11.33C10.66 11.51 10.73 11.68 10.86 11.8L11.72 12.66C11.98 12.92 12.4 12.92 12.66 12.66C12.92 12.4 12.92 11.98 12.66 11.72ZM5.33 11.33C5.33 9.44 6.2 7.76 7.56 6.66L0 6.66L0 12.66C0 14.5 1.49 16 3.33 16L7.56 16C6.2 14.9 5.33 13.21 5.33 11.33Z" fill="#EF476F" fill-opacity="1.000000" fill-rule="nonzero"/>
</svg>
