<svg width="20.000000" height="20.000000" viewBox="0 0 20 20" fill="none" xmlns="http://www.w3.org/2000/svg" xmlns:xlink="http://www.w3.org/1999/xlink">
	<desc>
			Created with Pixso.
	</desc>
	<defs>
		<clipPath id="clip0_3503">
			<rect id="trash" width="11.000000" height="11.000000" transform="translate(4.250000 4.500000)" fill="white" fill-opacity="0"/>
		</clipPath>
	</defs>
	<rect id="Rectangle 56" x="-0.250000" rx="4.000000" width="20.000000" height="20.000000" fill="#F51C1C" fill-opacity="1.000000"/>
	<rect id="trash" width="11.000000" height="11.000000" transform="translate(4.250000 4.500000)" fill="#FFFFFF" fill-opacity="0"/>
	<g clip-path="url(#clip0_3503)">
		<path id="Vector" d="M13.87 6.33L12.45 6.33C12.34 5.81 12.06 5.35 11.65 5.01C11.24 4.68 10.73 4.5 10.2 4.5L9.29 4.5C8.76 4.5 8.25 4.68 7.84 5.01C7.43 5.35 7.15 5.81 7.04 6.33L5.62 6.33C5.5 6.33 5.38 6.38 5.3 6.46C5.21 6.55 5.16 6.67 5.16 6.79C5.16 6.91 5.21 7.02 5.3 7.11C5.38 7.2 5.5 7.25 5.62 7.25L6.08 7.25L6.08 13.2C6.08 13.81 6.32 14.39 6.75 14.82C7.18 15.25 7.76 15.49 8.37 15.5L11.12 15.5C11.73 15.49 12.31 15.25 12.74 14.82C13.17 14.39 13.41 13.81 13.41 13.2L13.41 7.25L13.87 7.25C13.99 7.25 14.11 7.2 14.19 7.11C14.28 7.02 14.33 6.91 14.33 6.79C14.33 6.67 14.28 6.55 14.19 6.46C14.11 6.38 13.99 6.33 13.87 6.33ZM9.29 5.41L10.2 5.41C10.49 5.41 10.77 5.5 11 5.66C11.23 5.83 11.4 6.06 11.5 6.33L7.99 6.33C8.09 6.06 8.26 5.83 8.49 5.66C8.73 5.5 9 5.41 9.29 5.41ZM12.5 13.2C12.5 13.57 12.35 13.92 12.09 14.18C11.83 14.43 11.48 14.58 11.12 14.58L8.37 14.58C8.01 14.58 7.66 14.43 7.4 14.18C7.14 13.92 7 13.57 7 13.2L7 7.25L12.5 7.25L12.5 13.2Z" fill="#FFFFFF" fill-opacity="1.000000" fill-rule="nonzero"/>
		<path id="Vector" d="M8.83 12.75C8.95 12.75 9.07 12.7 9.15 12.61C9.24 12.52 9.29 12.41 9.29 12.29L9.29 9.54C9.29 9.42 9.24 9.3 9.15 9.21C9.07 9.13 8.95 9.08 8.83 9.08C8.71 9.08 8.59 9.13 8.5 9.21C8.42 9.3 8.37 9.42 8.37 9.54L8.37 12.29C8.37 12.41 8.42 12.52 8.5 12.61C8.59 12.7 8.71 12.75 8.83 12.75Z" fill="#FFFFFF" fill-opacity="1.000000" fill-rule="nonzero"/>
		<path id="Vector" d="M10.66 12.75C10.78 12.75 10.9 12.7 10.99 12.61C11.07 12.52 11.12 12.41 11.12 12.29L11.12 9.54C11.12 9.42 11.07 9.3 10.99 9.21C10.9 9.13 10.78 9.08 10.66 9.08C10.54 9.08 10.42 9.13 10.34 9.21C10.25 9.3 10.2 9.42 10.2 9.54L10.2 12.29C10.2 12.41 10.25 12.52 10.34 12.61C10.42 12.7 10.54 12.75 10.66 12.75Z" fill="#FFFFFF" fill-opacity="1.000000" fill-rule="nonzero"/>
	</g>
</svg>
