<svg width="21" height="20" viewBox="0 0 21 20" fill="none" xmlns="http://www.w3.org/2000/svg">
<rect x="0.75" width="20" height="20" rx="4" fill="#F51C1C"/>
<g clip-path="url(#clip0_0_3501)">
<path d="M14.8751 6.33333H13.4542C13.3479 5.81606 13.0664 5.35128 12.6573 5.01733C12.2482 4.68337 11.7365 4.50067 11.2084 4.5L10.2917 4.5C9.76365 4.50067 9.25194 4.68337 8.84284 5.01733C8.43375 5.35128 8.15229 5.81606 8.04591 6.33333H6.62508C6.50352 6.33333 6.38694 6.38162 6.30099 6.46758C6.21504 6.55353 6.16675 6.67011 6.16675 6.79167C6.16675 6.91322 6.21504 7.0298 6.30099 7.11576C6.38694 7.20171 6.50352 7.25 6.62508 7.25H7.08341V13.2083C7.08414 13.8159 7.32582 14.3984 7.75543 14.828C8.18505 15.2576 8.76752 15.4993 9.37508 15.5H12.1251C12.7326 15.4993 13.3151 15.2576 13.7447 14.828C14.1743 14.3984 14.416 13.8159 14.4167 13.2083V7.25H14.8751C14.9966 7.25 15.1132 7.20171 15.1992 7.11576C15.2851 7.0298 15.3334 6.91322 15.3334 6.79167C15.3334 6.67011 15.2851 6.55353 15.1992 6.46758C15.1132 6.38162 14.9966 6.33333 14.8751 6.33333ZM10.2917 5.41667H11.2084C11.4927 5.41701 11.7699 5.5053 12.0021 5.66941C12.2342 5.83353 12.4099 6.06543 12.505 6.33333H8.99512C9.09027 6.06543 9.26595 5.83353 9.49809 5.66941C9.73023 5.5053 10.0075 5.41701 10.2917 5.41667ZM13.5001 13.2083C13.5001 13.573 13.3552 13.9227 13.0974 14.1806C12.8395 14.4385 12.4898 14.5833 12.1251 14.5833H9.37508C9.01041 14.5833 8.66067 14.4385 8.40281 14.1806C8.14495 13.9227 8.00008 13.573 8.00008 13.2083V7.25H13.5001V13.2083Z" fill="white"/>
<path d="M9.83333 12.75C9.95489 12.75 10.0715 12.7018 10.1574 12.6158C10.2434 12.5298 10.2917 12.4133 10.2917 12.2917V9.54171C10.2917 9.42015 10.2434 9.30357 10.1574 9.21762C10.0715 9.13166 9.95489 9.08337 9.83333 9.08337C9.71178 9.08337 9.5952 9.13166 9.50924 9.21762C9.42329 9.30357 9.375 9.42015 9.375 9.54171V12.2917C9.375 12.4133 9.42329 12.5298 9.50924 12.6158C9.5952 12.7018 9.71178 12.75 9.83333 12.75Z" fill="white"/>
<path d="M11.6666 12.75C11.7881 12.75 11.9047 12.7018 11.9907 12.6158C12.0766 12.5298 12.1249 12.4133 12.1249 12.2917V9.54171C12.1249 9.42015 12.0766 9.30357 11.9907 9.21762C11.9047 9.13166 11.7881 9.08337 11.6666 9.08337C11.545 9.08337 11.4284 9.13166 11.3425 9.21762C11.2565 9.30357 11.2083 9.42015 11.2083 9.54171V12.2917C11.2083 12.4133 11.2565 12.5298 11.3425 12.6158C11.4284 12.7018 11.545 12.75 11.6666 12.75Z" fill="white"/>
</g>
<defs>
<clipPath id="clip0_0_3501">
<rect width="11" height="11" fill="white" transform="translate(5.25 4.5)"/>
</clipPath>
</defs>
</svg>
