<svg width="21" height="20" viewBox="0 0 21 20" fill="none" xmlns="http://www.w3.org/2000/svg">
<path d="M12.625 9.72L9.08333 13.2617C8.7725 13.5717 8.34333 13.75 7.905 13.75H7.41667V13.2617C7.41667 12.8167 7.59 12.3983 7.905 12.0833L11.4467 8.54167L12.625 9.72ZM13.4942 6.49417L12.625 7.36333L13.8033 8.54167L14.6725 7.6725C14.9975 7.3475 14.9975 6.81917 14.6725 6.49417C14.3575 6.17833 13.8083 6.17833 13.4942 6.49417ZM20.75 4.16667V15.8333C20.75 18.1308 18.8808 20 16.5833 20H4.91667C2.61917 20 0.75 18.1308 0.75 15.8333V4.16667C0.75 1.86917 2.61917 0 4.91667 0H16.5833C18.8808 0 20.75 1.86917 20.75 4.16667ZM15.8517 5.31583C14.9067 4.37167 13.26 4.37167 12.3158 5.31583L6.72667 10.905C6.0975 11.5342 5.75 12.3717 5.75 13.2617V14.5833C5.75 15.0442 6.12333 15.4167 6.58333 15.4167H7.905C8.795 15.4167 9.6325 15.07 10.2617 14.44L15.8508 8.85083C16.8258 7.87583 16.8267 6.29083 15.8517 5.31583Z" fill="#607AFB"/>
</svg>
