<svg width="20.000000" height="20.000000" viewBox="0 0 20 20" fill="none" xmlns="http://www.w3.org/2000/svg" xmlns:xlink="http://www.w3.org/1999/xlink">
	<desc>
			Created with Pixso.
	</desc>
	<defs/>
	<path id="Vector" d="M11.62 9.71L8.08 13.26C7.77 13.57 7.34 13.75 6.9 13.75L6.41 13.75L6.41 13.26C6.41 12.81 6.59 12.39 6.9 12.08L10.44 8.54L11.62 9.71ZM12.49 6.49L11.62 7.36L12.8 8.54L13.67 7.67C13.99 7.34 13.99 6.81 13.67 6.49C13.35 6.17 12.8 6.17 12.49 6.49ZM19.75 4.16L19.75 15.83C19.75 18.13 17.88 20 15.58 20L3.91 20C1.61 20 -0.25 18.13 -0.25 15.83L-0.25 4.16C-0.25 1.86 1.61 0 3.91 0L15.58 0C17.88 0 19.75 1.86 19.75 4.16ZM14.85 5.31C13.9 4.37 12.26 4.37 11.31 5.31L5.72 10.9C5.09 11.53 4.75 12.37 4.75 13.26L4.75 14.58C4.75 15.04 5.12 15.41 5.58 15.41L6.9 15.41C7.79 15.41 8.63 15.06 9.26 14.43L14.85 8.85C15.82 7.87 15.82 6.29 14.85 5.31Z" fill="#607AFB" fill-opacity="1.000000" fill-rule="nonzero"/>
</svg>
