<svg width="15.000000" height="15.000000" viewBox="0 0 15 15" fill="none" xmlns="http://www.w3.org/2000/svg" xmlns:xlink="http://www.w3.org/1999/xlink">
	<desc>
			Created with Pixso.
	</desc>
	<defs/>
	<path id="Vector" d="M14.75 7.5C14.75 3.36 11.38 0 7.25 0C3.11 0 -0.25 3.36 -0.25 7.5C-0.25 11.63 3.11 15 7.25 15C11.38 15 14.75 11.63 14.75 7.5ZM3.5 5.53C3.5 5.08 3.66 4.63 4 4.28L4.38 3.95C4.66 3.68 5.11 3.68 5.39 3.95L6.01 4.77C6.29 5.05 6.29 5.5 6.01 5.78L5.48 6.45C5.98 7.74 6.89 8.7 8.29 9.26L8.96 8.73C9.24 8.45 9.69 8.45 9.97 8.73L10.79 9.35C11.06 9.63 11.06 10.08 10.79 10.36L10.46 10.74C10.12 11.08 9.66 11.25 9.21 11.25C6.71 11.25 3.5 7.85 3.5 5.53Z" fill="#2A9D8F" fill-opacity="1.000000" fill-rule="nonzero"/>
</svg>
