<svg width="1020" height="960" viewBox="0 0 1020 960" fill="none" xmlns="http://www.w3.org/2000/svg">
<g clip-path="url(#clip0_0_224)">
<path d="M823.101 191.895H192.898V818.686H823.101V191.895Z" fill="#AAE0FF"/>
<path d="M5.82193 960H1014.43C1017.51 960 1020 957.511 1020 954.44C1020 951.369 1017.51 948.88 1014.43 948.88H5.82193C2.74638 948.88 0.253174 951.369 0.253174 954.44C0.253174 957.511 2.74638 960 5.82193 960Z" fill="#2D5B98"/>
<path d="M221.252 771.839H333.969V848.549C333.969 879.606 308.714 904.821 277.608 904.821C246.502 904.821 221.247 879.606 221.247 848.549V771.839H221.252Z" fill="#5896FA"/>
<path d="M221.252 829.815H215.005V948.884H221.252V829.815Z" fill="#0E0E0E"/>
<path d="M340.216 829.815H333.969V948.884H340.216V829.815Z" fill="#0E0E0E"/>
<path d="M292.413 829.815H286.166V948.884H292.413V829.815Z" fill="#0E0E0E"/>
<path d="M334.26 904.821H215.005V911.058H334.26V904.821Z" fill="#0E0E0E"/>
<path d="M365.384 645.107C372.186 654.887 358.496 663.318 356.363 676.877C354.229 690.437 369.784 698.064 353.287 715.816C343.128 726.75 334.547 712.227 326.289 728.985C318.032 745.742 324.538 748.568 315.257 754.595C299.073 765.107 274.314 741.876 282.64 725.137C290.966 708.398 307.813 709.897 300.02 696.124C292.226 682.351 289.328 676.419 302.768 669.341C319.401 660.583 334.056 668.628 335.398 655.814C336.735 642.999 356.39 632.165 365.389 645.107H365.384Z" fill="#FFCA59"/>
<path d="M294.283 771.071L291.485 770.517C304.597 704.337 348.073 657.998 348.514 657.535L350.584 659.498C350.152 659.952 307.235 705.727 294.287 771.071H294.283Z" fill="#0E0E0E"/>
<path d="M147.402 620.654C140.368 634.963 160.187 643.372 165.737 660.888C171.288 678.404 150.846 684.591 176.251 704.773C191.902 717.201 195.173 709.434 200.929 737.238C205.992 761.718 224.623 738.424 238.554 752.792C256.53 771.33 284.619 730.643 270.229 710.165C255.838 689.687 239.046 694.984 246.584 675.192C254.123 655.405 245.133 640.492 225.924 633.828C202.148 625.574 193.599 645.498 189.245 628.808C184.896 612.119 156.702 601.73 147.402 620.659V620.654Z" fill="#ED5A24"/>
<path d="M266.862 773.074C236.548 689.156 170.551 637.248 169.891 636.73L172.234 633.719C172.908 634.241 239.769 686.835 270.456 771.78L266.862 773.074Z" fill="#0E0E0E"/>
<path d="M349.461 540.765C482.586 540.765 590.505 433.015 590.505 300.097C590.505 167.18 482.586 59.4297 349.461 59.4297C216.336 59.4297 108.416 167.18 108.416 300.097C108.416 433.015 216.336 540.765 349.461 540.765Z" stroke="#2E77E6" stroke-width="8.73" stroke-miterlimit="10"/>
<path d="M410.49 284.303C410.744 282.427 410.922 280.523 410.922 278.575C410.922 255.149 391.904 236.161 368.442 236.161C350.839 236.161 335.739 246.85 329.297 262.081C324.051 257.416 317.158 254.558 309.583 254.558C293.186 254.558 279.897 267.827 279.897 284.198H274.355C258.591 284.198 245.693 297.076 245.693 312.816C245.693 328.556 258.591 341.434 274.355 341.434H408.374C424.139 341.434 437.037 328.556 437.037 312.816C437.037 297.79 425.271 285.402 410.49 284.307V284.303Z" fill="white"/>
<path d="M436.855 423.478H257.417C251.379 423.478 246.484 428.365 246.484 434.393V584.696C246.484 590.725 251.379 595.612 257.417 595.612H436.855C442.893 595.612 447.788 590.725 447.788 584.696V434.393C447.788 428.365 442.893 423.478 436.855 423.478Z" fill="#5896FA"/>
<path d="M408.078 527.411H286.726C282.754 527.411 279.505 524.168 279.505 520.202C279.505 516.237 282.754 512.993 286.726 512.993H408.078C412.05 512.993 415.299 516.237 415.299 520.202C415.299 524.168 412.05 527.411 408.078 527.411Z" fill="white"/>
<path d="M408.078 550.628H286.726C282.754 550.628 279.505 547.385 279.505 543.419C279.505 539.453 282.754 536.21 286.726 536.21H408.078C412.05 536.21 415.299 539.453 415.299 543.419C415.299 547.385 412.05 550.628 408.078 550.628Z" fill="white"/>
<path d="M309.388 544.06C309.388 545.463 308.25 546.599 306.844 546.599C305.438 546.599 304.301 545.463 304.301 544.06C304.301 542.656 305.438 541.521 306.844 541.521C308.25 541.521 309.388 542.656 309.388 544.06Z" fill="#80B2FF"/>
<path d="M318.1 544.06C318.1 545.463 316.963 546.599 315.557 546.599C314.151 546.599 313.014 545.463 313.014 544.06C313.014 542.656 314.151 541.521 315.557 541.521C316.963 541.521 318.1 542.656 318.1 544.06Z" fill="#80B2FF"/>
<path d="M326.817 544.06C326.817 545.463 325.68 546.599 324.274 546.599C322.868 546.599 321.731 545.463 321.731 544.06C321.731 542.656 322.868 541.521 324.274 541.521C325.68 541.521 326.817 542.656 326.817 544.06Z" fill="#80B2FF"/>
<path d="M335.53 544.06C335.53 545.463 334.392 546.599 332.986 546.599C331.581 546.599 330.443 545.463 330.443 544.06C330.443 542.656 331.581 541.521 332.986 541.521C334.392 541.521 335.53 542.656 335.53 544.06Z" fill="#80B2FF"/>
<path d="M344.247 544.06C344.247 545.463 343.109 546.599 341.704 546.599C340.298 546.599 339.16 545.463 339.16 544.06C339.16 542.656 340.298 541.521 341.704 541.521C343.109 541.521 344.247 542.656 344.247 544.06Z" fill="#80B2FF"/>
<path d="M352.964 544.06C352.964 545.463 351.827 546.599 350.421 546.599C349.015 546.599 347.877 545.463 347.877 544.06C347.877 542.656 349.015 541.521 350.421 541.521C351.827 541.521 352.964 542.656 352.964 544.06Z" fill="#80B2FF"/>
<path d="M361.676 544.06C361.676 545.463 360.539 546.599 359.133 546.599C357.727 546.599 356.59 545.463 356.59 544.06C356.59 542.656 357.727 541.521 359.133 541.521C360.539 541.521 361.676 542.656 361.676 544.06Z" fill="#80B2FF"/>
<path d="M370.394 544.06C370.394 545.463 369.256 546.599 367.85 546.599C366.445 546.599 365.307 545.463 365.307 544.06C365.307 542.656 366.445 541.521 367.85 541.521C369.256 541.521 370.394 542.656 370.394 544.06Z" fill="#80B2FF"/>
<path d="M379.111 544.06C379.111 545.463 377.973 546.599 376.567 546.599C375.162 546.599 374.024 545.463 374.024 544.06C374.024 542.656 375.162 541.521 376.567 541.521C377.973 541.521 379.111 542.656 379.111 544.06Z" fill="#80B2FF"/>
<path d="M347.445 492.82C362.851 492.82 375.339 480.351 375.339 464.969C375.339 449.588 362.851 437.119 347.445 437.119C332.04 437.119 319.551 449.588 319.551 464.969C319.551 480.351 332.04 492.82 347.445 492.82Z" fill="white"/>
<path d="M347.482 463.848C350.202 463.848 352.718 462.521 354.324 460.5C355.512 459.037 356.208 457.152 356.208 455.063C356.208 450.252 352.295 446.277 347.477 446.277C342.659 446.277 338.678 450.252 338.678 455.063C338.678 457.157 339.374 459.037 340.562 460.5C342.168 462.521 344.679 463.848 347.477 463.848H347.482Z" fill="#005CEA"/>
<path d="M362.946 479.506C362.946 485.053 331.936 485.053 331.936 479.506L331.945 473.047C333.168 464.216 360.425 463.843 362.95 473.047V479.506H362.946Z" fill="#005CEA"/>
<path d="M292.745 542.093V541.707C292.745 540.144 291.471 538.872 289.906 538.872C288.341 538.872 287.067 540.144 287.067 541.707V542.093H286.635V547.203C286.635 548.084 293.195 548.084 293.195 547.203V542.093H292.745ZM288.077 541.707C288.077 540.725 288.682 539.835 289.906 539.835C291.13 539.835 291.753 540.671 291.753 541.707V542.093H288.077V541.707ZM290.388 544.668V546.145C290.388 546.408 290.161 546.599 289.897 546.599C289.633 546.599 289.442 546.408 289.442 546.145V544.668C289.178 544.518 288.987 544.25 288.987 543.91C288.987 543.419 289.405 543.001 289.897 543.001C290.388 543.001 290.807 543.419 290.807 543.91C290.807 544.25 290.616 544.514 290.388 544.668Z" fill="#5896FA"/>
<path d="M289.911 519.679C290.484 519.679 291.016 519.398 291.353 518.975C291.603 518.666 291.749 518.271 291.749 517.826C291.749 516.813 290.925 515.973 289.906 515.973C288.887 515.973 288.05 516.813 288.05 517.826C288.05 518.267 288.195 518.666 288.446 518.975C288.782 519.402 289.315 519.679 289.906 519.679H289.911Z" fill="#5896FA"/>
<path d="M293.173 522.982C293.173 524.154 286.594 524.154 286.594 522.982L286.63 521.619C286.89 519.757 292.64 519.675 293.173 521.619V522.982Z" fill="#5896FA"/>
<path d="M332.418 522.319H305.825C304.661 522.319 303.705 521.365 303.705 520.202C303.705 519.039 304.661 518.085 305.825 518.085H332.418C333.583 518.085 334.538 519.039 334.538 520.202C334.538 521.365 333.583 522.319 332.418 522.319Z" fill="#80B2FF"/>
<path d="M367.491 522.319H340.898C339.734 522.319 338.778 521.365 338.778 520.202C338.778 519.039 339.734 518.085 340.898 518.085H367.491C368.656 518.085 369.611 519.039 369.611 520.202C369.611 521.365 368.656 522.319 367.491 522.319Z" fill="#80B2FF"/>
<path d="M356.294 560.771H332.199C328.782 560.771 326.012 563.536 326.012 566.947C326.012 570.358 328.782 573.123 332.199 573.123H356.294C359.712 573.123 362.482 570.358 362.482 566.947C362.482 563.536 359.712 560.771 356.294 560.771Z" fill="#1251B3"/>
<path d="M100.423 289.668C86.6008 304.454 64.5396 316.569 40.9361 321.734C40.927 323.31 40.8906 332.027 40.7086 372.224C40.4675 425.844 91.5781 452.045 99.5127 456.065C107.202 452.531 158.954 426.371 159.195 372.751C159.377 332.559 159.413 323.837 159.422 322.261C135.864 316.887 114.112 304.577 100.423 289.668Z" fill="white"/>
<path d="M100.282 299.361C86.7464 311.758 67.9928 321.506 47.3693 326.816L47.1646 372.246C47.0736 393.033 55.3403 411.839 71.7508 428.142C82.5289 438.853 93.8666 445.499 99.6173 448.483C99.863 448.356 100.136 448.215 100.404 448.079V299.47C100.363 299.434 100.323 299.402 100.286 299.366L100.282 299.361Z" fill="#296ACC"/>
<path d="M100.395 299.466V448.075C106.374 444.968 117.247 438.549 127.657 428.387C144.208 412.234 152.648 393.501 152.739 372.714L152.944 327.284C132.429 321.806 113.812 311.935 100.395 299.466Z" fill="#2E77E6"/>
<path d="M76.4369 364.947V400.143C76.4369 404.063 124.363 404.063 124.363 400.143V364.947H76.4369ZM102.82 383.635V393.611C102.82 394.942 101.737 396.041 100.409 396.041C99.0804 396.041 97.9749 394.937 97.9749 393.611V383.613C95.923 382.69 94.4808 380.619 94.4808 378.23C94.4808 374.964 97.1423 372.329 100.413 372.329C103.685 372.329 106.323 374.964 106.323 378.23C106.323 380.637 104.904 382.709 102.829 383.635H102.82Z" fill="white"/>
<path d="M120.163 362.44H115.314V360.068C115.314 351.855 108.621 345.178 100.4 345.178C92.1787 345.178 85.4861 351.86 85.4861 360.068V362.44H80.6362V360.068C80.6362 349.184 89.5035 340.331 100.404 340.331C111.305 340.331 120.168 349.184 120.168 360.068V362.44H120.163Z" fill="white"/>
<path d="M455.144 0H368.574V107.89H455.144V0Z" fill="#296ACC"/>
<path d="M466.373 11.1387H379.802V119.028H466.373V11.1387Z" fill="white" stroke="#5896FA" stroke-width="6.34" stroke-miterlimit="10"/>
<path d="M480.627 22.0811H394.056V129.971H480.627V22.0811Z" fill="white" stroke="#5896FA" stroke-width="6.34" stroke-miterlimit="10"/>
<path d="M491 33.2197H404.429V141.109H491V33.2197Z" fill="#5896FA"/>
<path d="M477.529 50.9307H432.751V57.9489H477.529V50.9307Z" fill="#005CEA"/>
<path d="M477.533 67.4209H419.511V74.4391H477.533V67.4209Z" fill="#005CEA"/>
<path d="M477.533 83.9053H419.511V90.9235H477.533V83.9053Z" fill="#005CEA"/>
<path d="M477.533 100.39H419.511V107.408H477.533V100.39Z" fill="#005CEA"/>
<path d="M477.533 116.875H419.511V123.893H477.533V116.875Z" fill="#005CEA"/>
<path d="M208.45 124.235C212.22 107.801 201.933 91.4283 185.474 87.6645C169.015 83.9008 152.616 94.1716 148.846 110.605C145.077 127.038 155.364 143.411 171.823 147.175C188.282 150.939 204.681 140.668 208.45 124.235Z" fill="white"/>
<path d="M226.898 146.464C230.861 139.901 233.34 132.805 234.391 125.646L236.671 125.978L241.17 126.636H241.229C242.444 118.451 242.03 110.165 240.046 102.252L233.354 103.906C231.557 96.7465 228.395 89.9191 223.891 83.9093L229.437 79.7938C224.691 73.3616 218.599 67.7379 211.329 63.3634L207.758 69.2778C201.161 65.3031 194.077 62.8456 186.907 61.7963L187.908 54.9734C179.705 53.7605 171.392 54.1966 163.481 56.1545L165.137 62.8365C157.962 64.6263 151.128 67.7879 145.109 72.285L140.987 66.7476C134.545 71.4855 128.912 77.5679 124.531 84.8269L130.455 88.3928C126.478 94.9794 124.012 102.052 122.961 109.211L118.125 108.503L116.151 108.23L116.128 108.216C114.913 116.407 115.35 124.706 117.311 132.605L124.003 130.952C125.8 138.111 128.981 144.947 133.489 150.962L127.943 155.077C132.689 161.509 138.758 167.119 146.028 171.494L149.6 165.579C156.197 169.55 163.303 172.025 170.473 173.075L169.686 178.376L169.472 179.897C177.675 181.11 185.965 180.661 193.877 178.703L192.221 172.021C199.391 170.226 206.238 167.051 212.284 162.563L216.406 168.101C222.826 163.349 228.445 157.289 232.826 150.03L226.902 146.464H226.898ZM162.88 143.575C148.408 134.863 143.753 116.111 152.484 101.662C161.197 87.2344 179.978 82.592 194.45 91.3045C208.9 100.008 213.554 118.755 204.837 133.182C196.111 147.632 177.33 152.279 162.88 143.575Z" fill="#005CEA"/>
<path d="M112.465 142.412C110.236 139.046 107.415 136.266 104.244 134.149L104.918 133.141L106.251 131.156L106.264 131.129C102.638 128.703 98.5981 127.027 94.3806 126.177L93.6572 129.73C89.8401 128.962 85.8774 128.926 81.992 129.707L81.2868 126.146C77.1512 126.945 73.0974 128.567 69.3713 131.029L71.3822 134.063C67.9973 136.298 65.2266 139.105 63.1064 142.271L60.0809 140.255C57.6514 143.875 55.9771 147.922 55.1218 152.12L58.6796 152.842C57.9107 156.653 57.8743 160.61 58.6569 164.489L55.09 165.193C55.8907 169.322 57.5149 173.37 59.9808 177.09L63.02 175.082C65.2584 178.462 68.0701 181.228 71.2412 183.345L69.8126 185.48L69.2348 186.357L69.2211 186.366C72.8472 188.792 76.9009 190.463 81.1048 191.317L81.8282 187.765C85.6453 188.533 89.6217 188.564 93.5026 187.783L94.2077 191.344C98.3434 190.545 102.388 188.932 106.114 186.466L104.103 183.431C107.488 181.196 110.268 178.385 112.388 175.214L114.736 176.786L115.414 177.231C117.843 173.61 119.504 169.572 120.359 165.375L116.801 164.653C117.57 160.841 117.602 156.871 116.829 152.987L120.395 152.283C119.581 148.163 117.966 144.125 115.5 140.405L112.461 142.412H112.465ZM96.6236 172.157C89.2031 177.058 79.2212 175.032 74.3122 167.623C69.4077 160.224 71.4414 150.262 78.8618 145.356C86.2732 140.459 96.2505 142.49 101.155 149.889C106.064 157.298 104.035 167.264 96.6236 172.161V172.157Z" fill="#1251B3"/>
<path d="M612.525 156.681H538.198C536.633 156.681 535.364 157.948 535.364 159.511V201.62C535.364 203.183 536.633 204.45 538.198 204.45H612.525C614.091 204.45 615.36 203.183 615.36 201.62V159.511C615.36 157.948 614.091 156.681 612.525 156.681Z" fill="#005CEA"/>
<path d="M615.36 165.702H535.364V173.947H615.36V165.702Z" fill="#5896FA"/>
<path d="M553.689 195.283H541.929C541.182 195.283 540.573 195.887 540.573 196.637C540.573 197.382 541.178 197.991 541.929 197.991H553.689C554.435 197.991 555.045 197.386 555.045 196.637C555.045 195.892 554.44 195.283 553.689 195.283Z" fill="#D1F5FF"/>
<path d="M571.774 195.283H560.013C559.267 195.283 558.658 195.887 558.658 196.637C558.658 197.382 559.263 197.991 560.013 197.991H571.774C572.52 197.991 573.13 197.386 573.13 196.637C573.13 195.892 572.525 195.283 571.774 195.283Z" fill="#D1F5FF"/>
<path d="M589.864 195.283H578.103C577.357 195.283 576.747 195.887 576.747 196.637C576.747 197.382 577.352 197.991 578.103 197.991H589.864C590.61 197.991 591.219 197.386 591.219 196.637C591.219 195.892 590.614 195.283 589.864 195.283Z" fill="#D1F5FF"/>
<path d="M607.953 195.283H596.192C595.446 195.283 594.836 195.887 594.836 196.637C594.836 197.382 595.441 197.991 596.192 197.991H607.953C608.699 197.991 609.309 197.386 609.309 196.637C609.309 195.892 608.704 195.283 607.953 195.283Z" fill="#D1F5FF"/>
<path d="M541.383 159.106C540.559 159.106 539.89 159.774 539.89 160.596V161.119C539.89 161.941 540.559 162.609 541.383 162.609C542.206 162.609 542.875 161.941 542.875 161.119V160.596C542.875 159.774 542.206 159.106 541.383 159.106Z" fill="#D1F5FF"/>
<path d="M544.604 160.86C544.604 161.827 545.391 162.613 546.36 162.613H552.584C553.553 162.613 554.34 161.827 554.34 160.86C554.34 159.892 553.553 159.106 552.584 159.106H546.36C545.391 159.106 544.604 159.892 544.604 160.86Z" fill="#D1F5FF"/>
<path d="M551.824 178.38H543.785C542.496 178.38 541.451 179.423 541.451 180.71V187.633C541.451 188.92 542.496 189.963 543.785 189.963H551.824C553.113 189.963 554.158 188.92 554.158 187.633V180.71C554.158 179.423 553.113 178.38 551.824 178.38Z" fill="#5896FA"/>
<path d="M583.089 326.127V320.672C583.089 318.196 581.078 316.184 578.599 316.184H530.764C528.284 316.184 526.269 318.191 526.269 320.672V417.123H649.996V326.127H583.085H583.089Z" fill="#1251B3"/>
<path d="M655.142 329.438H533.817L526.269 417.118H649.396L655.142 329.438Z" fill="white"/>
<path d="M650.001 417.119H526.273L539.404 330.529C539.786 327.995 541.97 326.123 544.536 326.123H657.767C660.943 326.123 663.372 328.944 662.899 332.078L650.005 417.119H650.001Z" fill="#3383FF"/>
<path d="M682.998 349.454C694.069 338.4 694.069 320.479 682.998 309.425C671.927 298.372 653.977 298.372 642.906 309.425C631.836 320.479 631.836 338.4 642.906 349.454C653.977 360.507 671.927 360.507 682.998 349.454Z" fill="#005CEA"/>
<path d="M662.954 358.778C646.748 358.778 633.563 345.614 633.563 329.438C633.563 313.262 646.748 300.098 662.954 300.098C679.159 300.098 692.344 313.262 692.344 329.438C692.344 345.614 679.159 358.778 662.954 358.778ZM662.954 302.169C647.89 302.169 635.642 314.402 635.642 329.438C635.642 344.474 647.89 356.711 662.954 356.711C678.017 356.711 690.265 344.474 690.265 329.438C690.265 314.402 678.017 302.169 662.954 302.169Z" fill="white"/>
<path d="M649.305 324.319V344.361C649.305 346.591 676.598 346.591 676.598 344.361V324.319H649.305ZM664.332 334.962V340.645C664.332 341.404 663.718 342.031 662.958 342.031C662.198 342.031 661.57 341.404 661.57 340.645V334.953C660.401 334.426 659.578 333.25 659.578 331.887C659.578 330.029 661.093 328.526 662.953 328.526C664.814 328.526 666.32 330.025 666.32 331.887C666.32 333.259 665.51 334.44 664.327 334.962H664.332Z" fill="white"/>
<path d="M674.209 322.888H671.448V321.539C671.448 316.865 667.635 313.058 662.953 313.058C658.272 313.058 654.459 316.865 654.459 321.539V322.888H651.698V321.539C651.698 315.343 656.748 310.301 662.953 310.301C669.159 310.301 674.209 315.343 674.209 321.539V322.888Z" fill="white"/>
<path d="M564.509 103.393C570.504 103.393 575.364 98.5402 575.364 92.5543C575.364 86.5684 570.504 81.7158 564.509 81.7158C558.513 81.7158 553.653 86.5684 553.653 92.5543C553.653 98.5402 558.513 103.393 564.509 103.393Z" fill="#AAE0FF"/>
<path d="M290.202 134.825C291.218 128.926 287.251 123.321 281.342 122.308C275.433 121.294 269.82 125.255 268.805 131.154C267.79 137.053 271.757 142.658 277.665 143.671C283.574 144.685 289.187 140.724 290.202 134.825Z" fill="#AAE0FF"/>
<path d="M640.619 282.941C643.755 282.941 646.297 280.403 646.297 277.272C646.297 274.141 643.755 271.603 640.619 271.603C637.484 271.603 634.941 274.141 634.941 277.272C634.941 280.403 637.484 282.941 640.619 282.941Z" fill="white"/>
<path d="M51.9103 289.195C52.6269 286.147 50.733 283.096 47.6801 282.38C44.6273 281.665 41.5715 283.556 40.8549 286.604C40.1383 289.652 42.0322 292.703 45.0851 293.419C48.1379 294.134 51.1937 292.243 51.9103 289.195Z" fill="#AAE0FF"/>
<path d="M139.895 504.289C145.295 501.689 147.563 495.211 144.959 489.819C142.355 484.427 135.867 482.163 130.466 484.763C125.066 487.362 122.799 493.841 125.402 499.233C128.006 504.625 134.495 506.888 139.895 504.289Z" fill="#AAE0FF"/>
<path d="M309.378 25.415C308.341 25.415 307.499 24.5746 307.499 23.5389V3.43368C307.499 2.39799 308.341 1.55762 309.378 1.55762C310.416 1.55762 311.257 2.39799 311.257 3.43368V23.5344C311.257 24.5701 310.416 25.4104 309.378 25.4104V25.415Z" fill="#AAE0FF"/>
<path d="M297.431 13.4864C297.431 12.4507 298.273 11.6104 299.31 11.6104H319.442C320.479 11.6104 321.321 12.4507 321.321 13.4864C321.321 14.5221 320.479 15.3625 319.442 15.3625H299.31C298.273 15.3625 297.431 14.5221 297.431 13.4864Z" fill="#AAE0FF"/>
<path d="M523.416 283.532C522.379 283.532 521.537 282.691 521.537 281.655V261.555C521.537 260.519 522.379 259.679 523.416 259.679C524.453 259.679 525.295 260.519 525.295 261.555V281.655C525.295 282.691 524.453 283.532 523.416 283.532Z" fill="white"/>
<path d="M511.469 271.603C511.469 270.567 512.31 269.727 513.348 269.727H533.48C534.517 269.727 535.359 270.567 535.359 271.603C535.359 272.638 534.517 273.479 533.48 273.479H513.348C512.31 273.479 511.469 272.638 511.469 271.603Z" fill="white"/>
<path d="M502.947 548.297C501.91 548.297 501.068 547.457 501.068 546.421V526.32C501.068 525.285 501.91 524.444 502.947 524.444C503.985 524.444 504.826 525.285 504.826 526.32V546.421C504.826 547.457 503.985 548.297 502.947 548.297Z" fill="white"/>
<path d="M491 536.368C491 535.333 491.842 534.492 492.879 534.492H513.011C514.048 534.492 514.89 535.333 514.89 536.368C514.89 537.404 514.048 538.244 513.011 538.244H492.879C491.842 538.244 491 537.404 491 536.368Z" fill="white"/>
<path d="M335.375 404.263C338.699 404.263 341.394 401.572 341.394 398.253C341.394 394.934 338.699 392.243 335.375 392.243C332.051 392.243 329.356 394.934 329.356 398.253C329.356 401.572 332.051 404.263 335.375 404.263Z" stroke="white" stroke-width="4.23" stroke-miterlimit="10"/>
<path d="M483.325 948.821H459.767L457.333 897.682H485.763L483.325 948.821Z" fill="#0E0E0E"/>
<path d="M892.733 948.821H869.175L866.741 897.682H895.172L892.733 948.821Z" fill="#0E0E0E"/>
<path d="M872.196 808.92C869.598 816.961 866.768 825.214 863.674 833.682H472.61C472.61 833.682 422.141 628.582 472.61 591.074C473.902 590.116 475.449 589.171 477.255 588.249C545.227 553.376 817.75 545.19 873.079 590.052C873.502 590.384 873.893 590.729 874.271 591.074C894.658 609.762 912.383 684.346 872.201 808.92H872.196Z" fill="#EA7B00"/>
<path d="M620.05 833.682H472.697L487.065 689.934C512.761 701.067 581.165 759.843 620.046 833.682H620.05Z" fill="#982C20"/>
<path d="M872.196 808.92C869.598 816.96 866.768 825.214 863.675 833.682H721.635C746.062 788.452 805.294 719.941 862.81 688.402L872.201 808.92H872.196Z" fill="#982C20"/>
<path d="M921.2 687.921H866.982C857.869 687.921 850.167 694.662 848.97 703.683L831.677 834.227H514.804L497.51 703.683C496.314 694.662 488.611 687.921 479.498 687.921H425.28C413.97 687.921 405.408 698.128 407.396 709.248L437.496 926.644H467.274H908.02H908.98L939.08 709.248C941.068 698.128 932.506 687.921 921.196 687.921H921.2Z" fill="#EA7B00"/>
<path d="M828.519 762.923C854.034 771.449 849.061 825.387 828.519 833.682H518.998C495.882 827.727 493.93 756.377 527.265 761.746C731.289 800.049 741.175 738.943 828.519 762.927V762.923Z" fill="#F2B066"/>
<path d="M592.607 708.253C592.511 722.18 593.262 735.285 594.764 746.769H739.897L748.491 605.278C739.87 553.598 716.271 541.074 678.914 541.074C645.483 541.074 623.217 568.302 609.686 604.751C597.989 636.245 592.816 674.606 592.607 708.253Z" fill="#007880"/>
<path d="M592.607 710.983L645.128 707.826C615.969 698.296 613.649 653.616 643.29 625.811L609.682 604.747C597.985 636.24 592.812 677.337 592.602 710.979L592.607 710.983Z" fill="#005459"/>
<path d="M582.607 776.01H782.009V708.258H602.393L582.607 776.01Z" fill="#0E0E0E"/>
<path d="M807.486 754.51L753.928 948.822H712.162C725.384 866.134 722.422 812.382 734.861 743.722C745.771 687.363 820.471 702.276 807.486 754.51Z" fill="#0E0E0E"/>
<path d="M738.928 948.822C738.928 948.695 738.919 948.567 738.919 948.436C738.919 934.031 750.616 922.353 765.043 922.353C779.47 922.353 791.167 934.031 791.167 948.436C791.167 948.563 791.158 948.69 791.158 948.822H738.932H738.928Z" fill="#B15626"/>
<path d="M770.075 922.839L760.58 919.941C754.31 907.63 727.581 909.157 731.303 924.138C720.816 925.696 715.297 920.481 715.297 920.481L712.162 948.817H768.796L770.075 922.839Z" fill="#B15626"/>
<path d="M572.307 754.51L625.865 948.822H667.631C654.409 866.134 657.371 812.382 644.932 743.722C634.022 687.363 559.322 702.276 572.307 754.51Z" fill="#0E0E0E"/>
<path d="M640.865 948.822C640.865 948.695 640.874 948.567 640.874 948.436C640.874 934.031 629.177 922.353 614.75 922.353C600.323 922.353 588.626 934.031 588.626 948.436C588.626 948.563 588.635 948.69 588.635 948.822H640.861H640.865Z" fill="#B15626"/>
<path d="M609.718 922.839L619.213 919.941C625.483 907.63 652.212 909.157 648.49 924.138C658.977 925.696 664.496 920.481 664.496 920.481L667.631 948.817H610.997L609.718 922.839Z" fill="#B15626"/>
<path d="M656.548 545.617C676.134 557.486 678.927 592.732 668.886 606.773L612.994 648.346L669.901 677.605L660.656 707.826C660.656 707.826 601.26 703.002 572.184 673.221C544.267 644.63 612.325 560.648 656.552 545.612L656.548 545.617Z" fill="#007880"/>
<path d="M696.284 599.083C679.528 578.078 691.102 545.617 712.458 546.571C782.008 571.019 803.478 638.898 781.444 669.37C762.568 695.475 679.528 705.528 679.528 705.528V676.946L737.226 664.5C737.226 664.5 707.476 618.48 696.284 599.083Z" fill="#007880"/>
<path d="M635.337 698.283C634.259 688.712 639.869 676.742 654.295 674.126C679.496 669.556 688.618 683.361 690.997 693.231C691.616 695.803 689.278 698.524 687.112 698.283C684.946 698.042 683.427 696.825 683.054 694.867C682.608 692.509 681.357 689.593 678.654 688.071C681.257 693.168 680.169 698.283 673.076 698.283H635.333H635.337Z" fill="#F7A594"/>
<path d="M692.235 698.255L712.067 598.974H716.271C714.929 605.81 695.42 705.151 694.81 708.253H635.378L628.886 698.255H692.235Z" fill="#99C1FF"/>
<path d="M716.266 598.974H863.834L842.009 708.258H694.805L716.266 598.974Z" fill="white"/>
<path d="M673.245 552.735C673.245 564.032 707.162 571.523 718.25 559.649C719.929 557.868 721.08 555.656 721.526 552.949L727.913 524.335L687.403 509.086L686.198 512.824L673.245 552.735Z" fill="#F7A594"/>
<path d="M721.521 552.949L727.909 524.336L689.583 514.033C679.66 543.51 715.06 567.063 721.516 552.949H721.521Z" fill="#F4856D"/>
<path d="M684.41 498.093C682.276 526.216 704.537 550.982 723.214 552.24C741.89 553.498 767.609 532.666 769.738 504.544C771.872 476.421 754.497 452.182 730.934 450.397C707.372 448.616 686.539 469.97 684.41 498.093Z" fill="#F7A594"/>
<path d="M715.634 452.532C741.462 436.201 755.675 451.56 768.537 467.849C777.563 479.278 783.956 487.491 795.184 489.213C773.578 516.422 730.37 498.47 716.758 471.206C715.415 486.728 697.094 499.583 684.41 498.098C680.301 480.827 692.281 445.913 715.638 452.532H715.634Z" fill="#0E0E0E"/>
<path d="M691.153 509.512C697.282 508.519 701.443 502.753 700.449 496.634C699.454 490.515 693.679 486.36 687.55 487.353C681.422 488.346 677.26 494.112 678.255 500.231C679.25 506.35 685.024 510.505 691.153 509.512Z" fill="#F7A594"/>
</g>
<defs>
<clipPath id="clip0_0_224">
<rect width="1019.75" height="960" fill="white" transform="translate(0.253174)"/>
</clipPath>
</defs>
</svg>
