<svg width="22" height="13" viewBox="0 0 22 13" fill="none" xmlns="http://www.w3.org/2000/svg">
<path d="M9.1305 9.8421L8.34268 12.7821L6.41083 12.2645L7.1983 9.3256C6.00919 8.8876 4.91661 8.2501 3.96116 7.4536L1.80783 9.6069L0.393621 8.1927L2.54695 6.0394C1.35581 4.6105 0.520141 2.8749 0.175781 0.968428L1.07634 0.804688C3.86882 2.81573 7.29618 4.0003 11.0002 4.0003C14.7043 4.0003 18.1316 2.81573 20.9241 0.804688L21.8247 0.968428C21.4803 2.8749 20.6446 4.6105 19.4535 6.0394L21.6068 8.1927L20.1926 9.6069L18.0393 7.4536C17.0838 8.2501 15.9912 8.8876 14.8021 9.3256L15.5896 12.2645L13.6578 12.7821L12.87 9.8421C12.2623 9.9461 11.6376 10.0003 11.0002 10.0003C10.3629 10.0003 9.7381 9.9461 9.1305 9.8421Z" fill="#BFBFBF"/>
</svg>
