<svg width="126" height="45" viewBox="0 0 126 45" fill="none" xmlns="http://www.w3.org/2000/svg">
<g clip-path="url(#clip0_0_377)">
<path d="M15.6303 3.09569C13.7387 4.48127 13.052 6.72228 13.558 8.74642C13.8954 10.144 13.558 11.626 12.5459 12.6501L10.9676 14.2285C9.94346 15.2526 8.47355 15.5779 7.06388 15.2405C5.03975 14.7465 2.78669 15.4333 1.41316 17.3129C0.123979 19.084 0.0396398 21.5419 1.23244 23.3853C3.18428 26.3853 7.24461 26.6866 9.6302 24.313C11.064 22.8792 11.5098 20.8551 10.9917 19.0358C10.6182 17.7225 11.076 16.3008 12.0519 15.3249L13.6303 13.7465C14.5942 12.7826 16.0159 12.3128 17.3412 12.6863C19.1605 13.2043 21.1847 12.7585 22.6184 11.3248C25.004 8.93919 24.6908 4.87886 21.6907 2.92702C19.8593 1.73422 17.3894 1.81856 15.6183 3.10774L15.6303 3.09569Z" fill="#061DB2"/>
<path d="M31.2331 5.10741C29.3415 6.49298 28.6668 8.73399 29.1608 10.7581C29.4981 12.1558 29.1608 13.6377 28.1487 14.6618L26.2932 16.5173C25.3293 17.4812 23.9076 17.9511 22.5823 17.5776C20.763 17.0595 18.7388 17.5053 17.3051 18.939C15.8713 20.3728 15.4255 22.3969 15.9436 24.2162C16.3171 25.5295 15.8593 26.9512 14.8833 27.9272L13.0279 29.7826C12.0038 30.8067 10.5339 31.1321 9.12419 30.7947C7.10005 30.3007 4.84699 30.9875 3.47347 32.867C2.18428 34.6382 2.09994 37.096 3.29274 38.9394C5.24459 41.9395 9.30491 42.2407 11.6905 39.8672C13.1243 38.4334 13.5701 36.4093 13.052 34.59C12.6785 33.2767 13.1363 31.855 14.1122 30.879L15.9677 29.0236C16.9316 28.0597 18.3533 27.5898 19.6786 27.9633C21.4979 28.4814 23.5221 28.0356 24.9558 26.6018C26.3896 25.1681 26.8354 23.1439 26.3173 21.3246C25.9438 20.0113 26.4017 18.5896 27.3776 17.6137L29.233 15.7582C30.1969 14.7944 31.6186 14.3245 32.944 14.698C34.7633 15.2161 36.7874 14.7703 38.2212 13.3365C40.6068 10.9509 40.2935 6.89058 37.2935 4.93873C35.4621 3.74594 32.9922 3.83028 31.221 5.11946L31.2331 5.10741Z" fill="#061DB2"/>
<path d="M33.2451 20.7226C31.3535 22.1082 30.6788 24.3492 31.1727 26.3734C31.5101 27.771 31.1727 29.2529 30.1607 30.2771L28.5823 31.8554C27.5582 32.8795 26.0883 33.2048 24.6786 32.8675C22.6545 32.3735 20.4014 33.0603 19.0279 34.9398C17.7387 36.7109 17.6544 39.1688 18.8472 41.0122C20.799 44.0123 24.8594 44.3256 27.2449 41.94C28.6787 40.5062 29.1245 38.4821 28.6064 36.6627C28.2329 35.3495 28.6908 33.9277 29.6667 32.9518L31.245 31.3735C32.2089 30.4096 33.6306 29.9397 34.956 30.3132C36.7753 30.8313 38.7994 30.3855 40.2332 28.9517C42.6188 26.5661 42.3055 22.5058 39.3054 20.554C37.4741 19.3612 35.0041 19.4455 33.233 20.7347L33.2451 20.7226Z" fill="#061DB2"/>
</g>
<path d="M60.9623 8.93366L68.4954 30.9779H68.7994L76.3325 8.93366H80.7466L71.0065 36H66.2883L56.5482 8.93366H60.9623ZM88.739 8.93366V36H84.6553V8.93366H88.739ZM94.6862 8.93366H99.6422L108.259 29.9735H108.576L117.193 8.93366H122.149V36H118.264V16.4139H118.012L110.03 35.9604H106.805L98.8228 16.4007H98.5717V36H94.6862V8.93366Z" fill="#061DB2"/>
<defs>
<clipPath id="clip0_0_377">
<rect width="41.4346" height="41.4346" fill="white" transform="translate(0.376953 2.07129)"/>
</clipPath>
</defs>
</svg>
