<svg width="20" height="20" viewBox="0 0 20 20" fill="none" xmlns="http://www.w3.org/2000/svg">
<path d="M15.8333 1.66667H15V0.833333C15 0.373333 14.6267 0 14.1667 0C13.7067 0 13.3333 0.373333 13.3333 0.833333V1.66667H6.66667V0.833333C6.66667 0.373333 6.29333 0 5.83333 0C5.37333 0 5 0.373333 5 0.833333V1.66667H4.16667C1.86917 1.66667 0 3.53583 0 5.83333V15.8333C0 18.1308 1.86917 20 4.16667 20H7.5C7.96 20 8.33333 19.6267 8.33333 19.1667C8.33333 18.7067 7.96 18.3333 7.5 18.3333H4.16667C2.78833 18.3333 1.66667 17.2117 1.66667 15.8333V8.33333H19.1667C19.6267 8.33333 20 7.96 20 7.5V5.83333C20 3.53583 18.1308 1.66667 15.8333 1.66667ZM18.3333 6.66667H1.66667V5.83333C1.66667 4.455 2.78833 3.33333 4.16667 3.33333H15.8333C17.2117 3.33333 18.3333 4.455 18.3333 5.83333V6.66667ZM15.7325 10.7325L10.9767 15.4883C10.3475 16.1175 10 16.955 10 17.8458V19.1675C10 19.6275 10.3733 20.0008 10.8333 20.0008H12.155C13.0458 20.0008 13.8825 19.6533 14.5117 19.0242L19.2675 14.2683C19.74 13.7958 20 13.1683 20 12.5C20 11.8317 19.74 11.2042 19.2683 10.7325C18.3233 9.7875 16.6767 9.7875 15.7325 10.7325ZM18.0892 13.0892L13.3325 17.845C13.0183 18.16 12.6 18.3333 12.1542 18.3333H11.6658V17.845C11.6658 17.4 11.8392 16.9817 12.1542 16.6667L16.9108 11.9108C17.225 11.5958 17.7742 11.5958 18.0892 11.9108C18.2467 12.0675 18.3333 12.2767 18.3333 12.5C18.3333 12.7233 18.2467 12.9317 18.0892 13.0892ZM4.16667 11.6667C4.16667 11.2067 4.54 10.8333 5 10.8333H10.8333C11.2933 10.8333 11.6667 11.2067 11.6667 11.6667C11.6667 12.1267 11.2933 12.5 10.8333 12.5H5C4.54 12.5 4.16667 12.1267 4.16667 11.6667ZM9.16667 15C9.16667 15.46 8.79333 15.8333 8.33333 15.8333H5C4.54 15.8333 4.16667 15.46 4.16667 15C4.16667 14.54 4.54 14.1667 5 14.1667H8.33333C8.79333 14.1667 9.16667 14.54 9.16667 15Z" fill="#4B4B4B"/>
</svg>
