<svg width="16" height="16" viewBox="0 0 16 16" fill="none" xmlns="http://www.w3.org/2000/svg">
<g clip-path="url(#clip0_0_3233)">
<path d="M16 4.66654V5.33321H0V4.66654C0 2.82588 1.49267 1.33321 3.33333 1.33321H4V0.666545C4 0.298545 4.29867 -0.00012207 4.66667 -0.00012207C5.03467 -0.00012207 5.33333 0.298545 5.33333 0.666545V1.33321H10.6667V0.666545C10.6667 0.298545 10.9653 -0.00012207 11.3333 -0.00012207C11.7013 -0.00012207 12 0.298545 12 0.666545V1.33321H12.6667C14.5073 1.33321 16 2.82588 16 4.66654ZM16 11.3332C16 13.9065 13.906 15.9999 11.3333 15.9999C8.76067 15.9999 6.66667 13.9065 6.66667 11.3332C6.66667 8.75988 8.76067 6.66654 11.3333 6.66654C13.906 6.66654 16 8.75988 16 11.3332ZM12.6667 11.7239L12 11.0572V9.99988C12 9.63188 11.7013 9.33321 11.3333 9.33321C10.9653 9.33321 10.6667 9.63188 10.6667 9.99988V11.3332C10.6667 11.5099 10.7367 11.6799 10.862 11.8045L11.724 12.6665C11.984 12.9265 12.4067 12.9265 12.6667 12.6665C12.9267 12.4065 12.9267 11.9839 12.6667 11.7239ZM5.33333 11.3332C5.33333 9.44721 6.20533 7.76654 7.566 6.66654H0V12.6665C0 14.5072 1.49267 15.9999 3.33333 15.9999H7.566C6.20533 14.8999 5.33333 13.2192 5.33333 11.3332Z" fill="#EF476F"/>
</g>
<defs>
<clipPath id="clip0_0_3233">
<rect width="16" height="16" fill="white"/>
</clipPath>
</defs>
</svg>
