<svg width="24" height="24" viewBox="0 0 24 24" fill="none" xmlns="http://www.w3.org/2000/svg">
<path d="M11.9996 3C17.3917 3 21.8777 6.87976 22.8182 12C21.8777 17.1202 17.3917 21 11.9996 21C6.60739 21 2.12142 17.1202 1.18091 12C2.12142 6.87976 6.60739 3 11.9996 3ZM11.9996 19C16.2352 19 19.8596 16.052 20.777 12C19.8596 7.94803 16.2352 5 11.9996 5C7.76387 5 4.13949 7.94803 3.22205 12C4.13949 16.052 7.76387 19 11.9996 19ZM11.9996 16.5C9.51425 16.5 7.49953 14.4853 7.49953 12C7.49953 9.51472 9.51425 7.5 11.9996 7.5C14.4848 7.5 16.4996 9.51472 16.4996 12C16.4996 14.4853 14.4848 16.5 11.9996 16.5ZM11.9996 14.5C13.3803 14.5 14.4996 13.3807 14.4996 12C14.4996 10.6193 13.3803 9.5 11.9996 9.5C10.6189 9.5 9.49953 10.6193 9.49953 12C9.49953 13.3807 10.6189 14.5 11.9996 14.5Z" fill="#4B4B4B"/>
</svg>
