<svg width="112" height="40" viewBox="0 0 112 40" fill="none" xmlns="http://www.w3.org/2000/svg">
<g clip-path="url(#clip0_0_766)">
<path d="M13.5587 2.75184C11.8773 3.98346 11.2668 5.97547 11.7166 7.7747C12.0165 9.01703 11.7166 10.3343 10.817 11.2447L9.41405 12.6476C8.50373 13.558 7.19714 13.8471 5.9441 13.5472C4.14487 13.1081 2.14215 13.7186 0.921238 15.3893C-0.224703 16.9636 -0.299671 19.1484 0.760592 20.787C2.49557 23.4537 6.10475 23.7215 8.22527 21.6117C9.49973 20.3372 9.89599 18.538 9.43547 16.9208C9.10347 15.7534 9.51044 14.4897 10.3779 13.6222L11.7809 12.2192C12.6377 11.3625 13.9014 10.9448 15.0795 11.2768C16.6967 11.7373 18.4959 11.341 19.7704 10.0666C21.8909 7.94606 21.6124 4.33688 18.9457 2.6019C17.3178 1.54164 15.1223 1.61661 13.548 2.76255L13.5587 2.75184Z" fill="#061DB2"/>
<path d="M27.4275 4.53992C25.7461 5.77154 25.1463 7.76355 25.5854 9.56279C25.8853 10.8051 25.5854 12.1224 24.6858 13.0327L23.0365 14.682C22.1797 15.5388 20.916 15.9565 19.7379 15.6245C18.1208 15.164 16.3215 15.5602 15.0471 16.8347C13.7726 18.1091 13.3763 19.9084 13.8369 21.5256C14.1689 22.6929 13.7619 23.9567 12.8944 24.8242L11.2451 26.4734C10.3348 27.3838 9.0282 27.6729 7.77516 27.3731C5.97592 26.934 3.9732 27.5444 2.75229 29.2151C1.60635 30.7895 1.53138 32.9743 2.59165 34.6128C4.32662 37.2796 7.9358 37.5473 10.0563 35.4375C11.3308 34.163 11.727 32.3638 11.2665 30.7466C10.9345 29.5793 11.3415 28.3155 12.209 27.448L13.8583 25.7987C14.7151 24.942 15.9788 24.5243 17.1569 24.8563C18.7741 25.3168 20.5733 24.9205 21.8477 23.6461C23.1222 22.3716 23.5185 20.5724 23.0579 18.9552C22.7259 17.7879 23.1329 16.5241 24.0004 15.6566L25.6497 14.0073C26.5065 13.1505 27.7702 12.7329 28.9483 13.0649C30.5655 13.5254 32.3647 13.1291 33.6392 11.8547C35.7597 9.73414 35.4812 6.12496 32.8145 4.38999C31.1866 3.32972 28.9911 3.40469 27.4168 4.55063L27.4275 4.53992Z" fill="#061DB2"/>
<path d="M29.2162 18.4198C27.5348 19.6514 26.935 21.6434 27.3741 23.4427C27.674 24.685 27.3741 26.0023 26.4745 26.9126L25.0715 28.3156C24.1612 29.2259 22.8546 29.5151 21.6016 29.2152C19.8023 28.7761 17.7996 29.3866 16.5787 31.0573C15.4328 32.6316 15.3578 34.8164 16.4181 36.455C18.153 39.1217 21.7622 39.4002 23.8827 37.2796C25.1572 36.0052 25.5535 34.2059 25.0929 32.5888C24.7609 31.4214 25.1679 30.1577 26.0354 29.2902L27.4384 27.8872C28.2952 27.0304 29.5589 26.6127 30.737 26.9447C32.3541 27.4053 34.1534 27.009 35.4278 25.7345C37.5484 23.614 37.2699 20.0048 34.6032 18.2699C32.9753 17.2096 30.7798 17.2846 29.2055 18.4305L29.2162 18.4198Z" fill="#061DB2"/>
</g>
<path d="M53.8537 7.94103L60.5498 27.5359H60.82L67.5161 7.94103H71.4397L62.7818 32H58.5879L49.93 7.94103H53.8537ZM78.5441 7.94103V32H74.9141V7.94103H78.5441ZM83.8305 7.94103H88.2358L95.8952 26.6431H96.1771L103.837 7.94103H108.242V32H104.788V14.5901H104.565L97.4694 31.9648H94.603L87.5075 14.5784H87.2843V32H83.8305V7.94103Z" fill="#061DB2"/>
<defs>
<clipPath id="clip0_0_766">
<rect width="36.8308" height="36.8308" fill="white" transform="translate(0 1.84131)"/>
</clipPath>
</defs>
</svg>
