<svg width="30" height="30" viewBox="0 0 30 30" fill="none" xmlns="http://www.w3.org/2000/svg">
<g clip-path="url(#clip0_0_3157)">
<path d="M24.75 6.33333H21.3917C21.1402 5.1107 20.475 4.01213 19.508 3.22278C18.5411 2.43343 17.3316 2.00158 16.0834 2L13.9167 2C12.6685 2.00158 11.4589 2.43343 10.492 3.22278C9.52505 4.01213 8.85979 5.1107 8.60835 6.33333H5.25002C4.9627 6.33333 4.68715 6.44747 4.48399 6.65063C4.28082 6.8538 4.16669 7.12935 4.16669 7.41667C4.16669 7.70398 4.28082 7.97953 4.48399 8.1827C4.68715 8.38586 4.9627 8.5 5.25002 8.5H6.33335V22.5833C6.33507 24.0194 6.90631 25.3961 7.92176 26.4116C8.93721 27.427 10.314 27.9983 11.75 28H18.25C19.6861 27.9983 21.0628 27.427 22.0783 26.4116C23.0937 25.3961 23.665 24.0194 23.6667 22.5833V8.5H24.75C25.0373 8.5 25.3129 8.38586 25.5161 8.1827C25.7192 7.97953 25.8334 7.70398 25.8334 7.41667C25.8334 7.12935 25.7192 6.8538 25.5161 6.65063C25.3129 6.44747 25.0373 6.33333 24.75 6.33333ZM13.9167 4.16667H16.0834C16.7553 4.16749 17.4106 4.37616 17.9593 4.76406C18.508 5.15197 18.9232 5.70012 19.1481 6.33333H10.8519C11.0768 5.70012 11.4921 5.15197 12.0408 4.76406C12.5895 4.37616 13.2447 4.16749 13.9167 4.16667ZM21.5 22.5833C21.5 23.4453 21.1576 24.2719 20.5481 24.8814C19.9386 25.4909 19.112 25.8333 18.25 25.8333H11.75C10.8881 25.8333 10.0614 25.4909 9.45192 24.8814C8.84243 24.2719 8.50002 23.4453 8.50002 22.5833V8.5H21.5V22.5833Z" fill="#F51C1C"/>
<path d="M12.8333 21.5C13.1207 21.5 13.3962 21.3859 13.5994 21.1827C13.8025 20.9796 13.9167 20.704 13.9167 20.4167V13.9167C13.9167 13.6294 13.8025 13.3538 13.5994 13.1507C13.3962 12.9475 13.1207 12.8334 12.8333 12.8334C12.546 12.8334 12.2705 12.9475 12.0673 13.1507C11.8641 13.3538 11.75 13.6294 11.75 13.9167V20.4167C11.75 20.704 11.8641 20.9796 12.0673 21.1827C12.2705 21.3859 12.546 21.5 12.8333 21.5Z" fill="#F51C1C"/>
<path d="M17.1666 21.5C17.454 21.5 17.7295 21.3859 17.9327 21.1827C18.1358 20.9796 18.25 20.704 18.25 20.4167V13.9167C18.25 13.6294 18.1358 13.3538 17.9327 13.1507C17.7295 12.9475 17.454 12.8334 17.1666 12.8334C16.8793 12.8334 16.6038 12.9475 16.4006 13.1507C16.1974 13.3538 16.0833 13.6294 16.0833 13.9167V20.4167C16.0833 20.704 16.1974 20.9796 16.4006 21.1827C16.6038 21.3859 16.8793 21.5 17.1666 21.5Z" fill="#F51C1C"/>
</g>
<defs>
<clipPath id="clip0_0_3157">
<rect width="26" height="26" fill="white" transform="translate(2 2)"/>
</clipPath>
</defs>
</svg>
