<svg width="16" height="15" viewBox="0 0 16 15" fill="none" xmlns="http://www.w3.org/2000/svg">
<g clip-path="url(#clip0_0_3245)">
<path d="M15.75 7.49988C15.75 3.36425 12.3856 -0.000122217 8.25 -0.000122398C4.11438 -0.000122579 0.75 3.36425 0.75 7.49988C0.749999 11.6355 4.11437 14.9999 8.25 14.9999C12.3856 14.9999 15.75 11.6355 15.75 7.49988ZM4.5 5.5355C4.5 5.08363 4.66312 4.62988 5.00813 4.2855L5.38313 3.95925C5.66187 3.6805 6.11437 3.6805 6.39313 3.95925L7.01813 4.773C7.29687 5.05175 7.29687 5.50425 7.01813 5.783L6.48625 6.45113C6.98062 7.7455 7.89625 8.7005 9.29875 9.26363L9.96687 8.73175C10.2456 8.453 10.6981 8.453 10.9769 8.73175L11.7906 9.35675C12.0694 9.6355 12.0694 10.088 11.7906 10.3668L11.4644 10.7418C11.12 11.0868 10.6662 11.2499 10.2144 11.2499C7.71437 11.2499 4.5 7.85675 4.5 5.5355Z" fill="#2A9D8F"/>
</g>
<defs>
<clipPath id="clip0_0_3245">
<rect width="15" height="15" fill="white" transform="translate(15.75 -0.00012207) rotate(90)"/>
</clipPath>
</defs>
</svg>
